<mxfile host="app.diagrams.net" modified="2024-04-01T17:32:35.686Z" agent="Mozilla/5.0 (Windows NT 10.0; Win64; x64; rv:124.0) Gecko/20100101 Firefox/124.0" version="24.2.1" etag="c0WqODuhtPrLhUA6VOwG" type="github">
  <diagram name="Pagina-1" id="jJnESbs7p5enPKDtaaTV">
    <mxGraphModel>
      <root>
        <mxCell id="0" />
        <mxCell id="1" parent="0" />
      </root>
    </mxGraphModel>
  </diagram>
</mxfile>
